<?xml version="1.0" encoding="utf-8"?><svg xmlns="http://www.w3.org/2000/svg" xmlns:xlink="http://www.w3.org/1999/xlink"><symbol viewBox="0 0 24 24" id="award" xmlns="http://www.w3.org/2000/svg"><path d="M9.815 15.392l-1.644 3.515-1.371-.639 1.521-3.253a4.284 4.284 0 0 1-1.846-.812L3 21.656l3.687-1.342L8.026 24l3.738-8.018a4.277 4.277 0 0 1-1.949-.59zm5.88-.382l1.501 3.251-1.353.645-1.639-3.526a4.278 4.278 0 0 1-1.945.601L16 24l1.34-3.683L21 21.662l-3.46-7.472a4.294 4.294 0 0 1-1.845.82zm3.231-9.288c-.482 1.41-.484 1.139 0 2.555.05.147.074.297.074.445 0 .449-.222.883-.615 1.156-1.256.87-1.09.651-1.562 2.067-.198.591-.77.99-1.415.99h-.003c-1.549-.005-1.28-.088-2.528.789-.262.184-.569.276-.877.276s-.615-.092-.876-.275c-1.249-.878-.98-.794-2.528-.789h-.004c-.645 0-1.216-.399-1.413-.99-.473-1.417-.311-1.198-1.562-2.067A1.41 1.41 0 0 1 5 8.722c0-.148.024-.298.074-.444.483-1.411.484-1.139 0-2.555A1.38 1.38 0 0 1 5 5.278c0-.45.222-.883.616-1.157 1.251-.868 1.089-.648 1.562-2.067.197-.591.769-.99 1.413-.99h.004c1.545.005 1.271.095 2.528-.79C11.385.091 11.692 0 12 0s.615.091.876.274c1.248.878.98.795 2.528.79h.003c.646 0 1.217.399 1.415.99.473 1.416.307 1.197 1.562 2.067.394.273.616.707.616 1.156 0 .148-.024.299-.074.445zM17 7A5 5 0 1 0 7 7a5 5 0 0 0 10 0zm-5-3c1.653 0 2.999 1.346 2.999 3S13.653 10 12 10c-1.654 0-3-1.346-3-3s1.346-3 3-3zm0-1a4 4 0 1 0 0 8 4 4 0 0 0 0-8z"/></symbol><symbol viewBox="0 0 522.479 522.479" id="buildings" xmlns="http://www.w3.org/2000/svg"><path d="M438.582 149.185a10.955 10.955 0 0 0 7.685 3.178c6.008 0 10.885-4.876 10.885-10.885V43.517a10.876 10.876 0 0 0-10.885-10.885h-97.962a10.838 10.838 0 0 0-10.057 6.748c-1.698 4.049-.762 8.708 2.351 11.842l97.983 97.963zM65.305 263.843v247.712H217.69V359.171h87.077v152.385h152.385V263.843L261.228 67.92 65.305 263.843zm454.193.893l-.218-.348L268.934 14.042c-4.158-4.158-11.233-4.158-15.391 0L3.197 264.388c-3.918 3.94-4.506 10.427-.239 15.043 4.942 4.942 11.581 4.201 15.478.435l.152-.087 242.64-242.64 242.64 242.64.131.087c4.136 4.027 10.993 4.027 15.108 0l.152-.087c3.983-3.941 4.506-10.537.239-15.043z"/></symbol><symbol viewBox="0 0 148 161" id="cart" xmlns="http://www.w3.org/2000/svg"><path d="M2.272 52.673c0 .061.033.113.036.177-.043.367-.033.747.07 1.126l16.197 59.727c.059.22.172.408.275.597.402 1.206 1.504 2.091 2.843 2.091l76.519.063-4.337 14.39c-1.363-.425-2.786-.72-4.289-.72-3.024 0-5.825.938-8.146 2.529H29.396a14.346 14.346 0 0 0-8.147-2.529c-7.965 0-14.427 6.459-14.427 14.427 0 7.966 6.459 14.427 14.427 14.427 7.972 0 14.428-6.461 14.428-14.427a14.33 14.33 0 0 0-1.244-5.821h41.974a14.292 14.292 0 0 0-1.246 5.821c0 7.966 6.461 14.427 14.426 14.427 7.971 0 14.428-6.461 14.428-14.427 0-4.22-1.845-7.978-4.732-10.618l29.074-96.492 12.595.055h.012a3.034 3.034 0 0 0 3.038-3.024 3.042 3.042 0 0 0-3.024-3.053l-14.869-.063h-.013c-1.592 0-2.863 1.235-2.988 2.797-.073.152-.183.274-.234.437l-4.57 15.177c-.207-.045-.403-.127-.622-.127H5.305a3.029 3.029 0 0 0-3.033 3.033zm27.331 91.875c0 4.61-3.746 8.353-8.354 8.353-4.607 0-8.353-3.743-8.353-8.353 0-4.608 3.749-8.353 8.353-8.353 4.606 0 8.352 3.744 8.354 8.353zm68.333 0c0 4.61-3.744 8.353-8.353 8.353-4.607 0-8.353-3.743-8.353-8.353 0-4.608 3.746-8.353 8.353-8.353 4.608 0 8.353 3.744 8.353 8.353zM9.141 55.716h107.366l-16.47 54.668-76.088-.062L9.141 55.716z"/><path d="M32.058 55.333l-.849-1.582a35.898 35.898 0 0 1-4.242-16.918C26.967 17.075 43.041 1 62.799 1c19.76 0 35.834 16.075 35.834 35.833a35.903 35.903 0 0 1-4.241 16.918l-.85 1.582H32.058zm57.835-6a29.92 29.92 0 0 0 2.74-12.5C92.633 20.383 79.249 7 62.799 7 46.35 7 32.967 20.383 32.967 36.833c0 4.317.943 8.603 2.742 12.5h54.184z"/><text transform="translate(47.303 48.087)" font-family="'MyriadPro-Semibold'" font-size="48">4</text></symbol><symbol viewBox="0 0 512 512" id="check" xmlns="http://www.w3.org/2000/svg"><path d="M504.502 75.496c-9.997-9.998-26.205-9.998-36.204 0L161.594 382.203 43.702 264.311c-9.997-9.998-26.205-9.997-36.204 0-9.998 9.997-9.998 26.205 0 36.203l135.994 135.992c9.994 9.997 26.214 9.99 36.204 0L504.502 111.7c9.998-9.997 9.997-26.206 0-36.204z"/></symbol><symbol viewBox="0 0 442.533 442.533" id="check-bold" xmlns="http://www.w3.org/2000/svg"><path d="M434.539 98.499l-38.828-38.828c-5.324-5.328-11.799-7.993-19.41-7.993-7.618 0-14.093 2.665-19.417 7.993L169.59 247.248l-83.939-84.225c-5.33-5.33-11.801-7.992-19.412-7.992-7.616 0-14.087 2.662-19.417 7.992L7.994 201.852C2.664 207.181 0 213.654 0 221.269c0 7.609 2.664 14.088 7.994 19.416l103.351 103.349 38.831 38.828c5.327 5.332 11.8 7.994 19.414 7.994 7.611 0 14.084-2.669 19.414-7.994l38.83-38.828L434.539 137.33c5.325-5.33 7.994-11.802 7.994-19.417.004-7.611-2.669-14.084-7.994-19.414z"/></symbol><symbol viewBox="0 0 24 24" id="credit-card" xmlns="http://www.w3.org/2000/svg"><path d="M22 4H2a2 2 0 0 0-2 2v12a2 2 0 0 0 2 2h20a2 2 0 0 0 2-2V6a2 2 0 0 0-2-2zM3 9.78A.78.78 0 0 1 3.78 9h.428v1.125H3V9.78zm0 .764h1.208v.968H3v-.968zm0 1.388h1.208V13H3.78a.78.78 0 0 1-.78-.78v-.288zM6 17H3v-1h3v1zm1-4.78a.78.78 0 0 1-.78.78h-.429v-1.068H7v.288zm0-.708H5.791v-.968H7v.968zm0-1.387H5.371V13h-.743V9H6.22a.78.78 0 0 1 .78.78v.345zM11 17H8v-1h3v1zm1-6.5a2.5 2.5 0 0 1 3.82-2.123 3.055 3.055 0 0 0 0 4.246A2.5 2.5 0 0 1 12 10.5zm4 6.5h-3v-1h3v1zm5 0h-3v-1h3v1zm-2.5-4a2.5 2.5 0 1 1 0-5 2.5 2.5 0 0 1 0 5z"/></symbol><symbol viewBox="0 0 24 24" id="credit-card-2" xmlns="http://www.w3.org/2000/svg"><path d="M22 4H2a2 2 0 0 0-2 2v12a2 2 0 0 0 2 2h20a2 2 0 0 0 2-2V6a2 2 0 0 0-2-2zM6 17H3v-1h3v1zm5 0H8v-1h3v1zm.32-4.377a2.5 2.5 0 1 1 0-4.246 3.053 3.053 0 0 0-.857 2.123c0 .824.326 1.571.857 2.123zM16 17h-3v-1h3v1zm-2-4a2.5 2.5 0 1 1 0-5 2.5 2.5 0 0 1 0 5zm7 4h-3v-1h3v1z"/></symbol><symbol viewBox="0 0 612 612" id="del" xmlns="http://www.w3.org/2000/svg"><path d="M612 36.004L576.521.603 306 270.608 35.478.603 0 36.004l270.522 270.007L0 575.997l35.478 35.4L306 341.411l270.521 269.986 35.479-35.4-270.541-269.986z"/></symbol><symbol viewBox="0 0 512 512" id="delivery" xmlns="http://www.w3.org/2000/svg"><path d="M476.158 231.363l-13.259-53.035c3.625-.77 6.345-3.986 6.345-7.839v-8.551c0-18.566-15.105-33.67-33.67-33.67h-60.392V110.63c0-9.136-7.432-16.568-16.568-16.568H50.772c-9.136 0-16.568 7.432-16.568 16.568V256a8.017 8.017 0 0 0 16.034 0V110.63c0-.295.239-.534.534-.534h307.841c.295 0 .534.239.534.534v145.372a8.017 8.017 0 0 0 16.034 0v-9.088h94.569l.021.002.022-.001c11.637.008 21.518 7.646 24.912 18.171h-24.928a8.017 8.017 0 0 0-8.017 8.017v17.102c0 13.851 11.268 25.119 25.119 25.119h9.086v35.273h-20.962c-6.886-19.883-25.787-34.205-47.982-34.205s-41.097 14.322-47.982 34.205h-3.86v-60.393a8.017 8.017 0 0 0-16.034 0v60.391H192.817c-6.886-19.883-25.787-34.205-47.982-34.205s-41.097 14.322-47.982 34.205H50.772a.534.534 0 0 1-.534-.534v-17.637h34.739a8.017 8.017 0 0 0 0-16.034H8.017a8.017 8.017 0 0 0 0 16.034h26.188v17.637c0 9.136 7.432 16.568 16.568 16.568h43.304c-.002.178-.014.355-.014.534 0 27.996 22.777 50.772 50.772 50.772s50.772-22.776 50.772-50.772c0-.18-.012-.356-.014-.534h180.67c-.002.178-.014.355-.014.534 0 27.996 22.777 50.772 50.772 50.772 27.995 0 50.772-22.776 50.772-50.772 0-.18-.012-.356-.014-.534h26.203a8.017 8.017 0 0 0 8.017-8.017v-85.511c.001-21.112-15.576-38.653-35.841-41.738zm-100.976-87.062h60.392c9.725 0 17.637 7.912 17.637 17.637v.534h-78.029v-18.171zm0 86.58v-52.376h71.235l13.094 52.376h-84.329zM144.835 401.904c-19.155 0-34.739-15.583-34.739-34.739s15.584-34.739 34.739-34.739c19.155 0 34.739 15.583 34.739 34.739s-15.584 34.739-34.739 34.739zm282.188 0c-19.155 0-34.739-15.583-34.739-34.739s15.584-34.739 34.739-34.739c19.155 0 34.739 15.583 34.739 34.739s-15.584 34.739-34.739 34.739zm68.944-102.614h-9.086c-5.01 0-9.086-4.076-9.086-9.086v-9.086h18.171v18.172z"/><path d="M144.835 350.597c-9.136 0-16.568 7.432-16.568 16.568 0 9.136 7.432 16.568 16.568 16.568 9.136 0 16.568-7.432 16.568-16.568 0-9.136-7.432-16.568-16.568-16.568zm282.188 0c-9.136 0-16.568 7.432-16.568 16.568 0 9.136 7.432 16.568 16.568 16.568 9.136 0 16.568-7.432 16.568-16.568 0-9.136-7.432-16.568-16.568-16.568zm-94.063-34.204H213.244a8.017 8.017 0 0 0 0 16.034H332.96a8.017 8.017 0 0 0 0-16.034zm-205.227-34.205H25.119a8.017 8.017 0 0 0 0 16.034h102.614a8.017 8.017 0 0 0 0-16.034zM278.771 173.37a8.017 8.017 0 0 0-11.337.001l-71.292 71.291-37.087-37.087a8.016 8.016 0 0 0-11.337 0 8.016 8.016 0 0 0 0 11.337l42.756 42.756c1.565 1.566 3.617 2.348 5.668 2.348s4.104-.782 5.668-2.348l76.96-76.96a8.018 8.018 0 0 0 .001-11.338z"/></symbol><symbol viewBox="0 0 512 512" id="down-arrow" xmlns="http://www.w3.org/2000/svg"><path d="M509.121 125.966a9.821 9.821 0 0 0-13.893 0L256.005 365.194 16.771 125.966a9.821 9.821 0 0 0-13.893 0 9.821 9.821 0 0 0 0 13.893l246.18 246.175a9.819 9.819 0 0 0 13.893 0l246.17-246.175a9.821 9.821 0 0 0 0-13.893z"/></symbol><symbol viewBox="0 0 404.257 404.257" id="down-chevron" xmlns="http://www.w3.org/2000/svg"><path d="M386.257 114.331L202.128 252.427 18 114.331l-18 24 202.128 151.596 202.129-151.596z"/></symbol><symbol viewBox="0 0 55 55" id="exit" xmlns="http://www.w3.org/2000/svg"><path d="M53.924 24.382a1.001 1.001 0 0 0-.217-1.091L41.708 11.293a.999.999 0 1 0-1.414 1.414L50.587 23H29.001a1 1 0 1 0 0 2h21.586L40.294 35.293a.999.999 0 1 0 1.414 1.414l11.999-11.999c.092-.092.166-.203.217-.326z"/><path d="M36.001 29a1 1 0 0 0-1 1v16h-10V8a1 1 0 0 0-.697-.953L8.442 2h26.559v16a1 1 0 1 0 2 0V1a1 1 0 0 0-1-1h-34c-.032 0-.06.015-.091.018-.056.005-.105.018-.158.032a.972.972 0 0 0-.259.108c-.026.016-.057.016-.082.034-.031.023-.055.052-.083.077-.017.016-.035.03-.051.047a1.04 1.04 0 0 0-.184.273c-.009.02-.014.04-.022.06a.998.998 0 0 0-.07.351v46c0 .125.029.243.072.355.014.037.035.068.053.103a.962.962 0 0 0 .415.416c.037.02.071.041.111.056.017.006.03.018.047.024l22 7A1.002 1.002 0 0 0 25.001 54v-6h11a1 1 0 0 0 1-1V30a1 1 0 0 0-1-1zm-13 23.633l-20-6.364V2.367l20 6.364v43.902z"/></symbol><symbol viewBox="0 0 5120 5120" id="fb" xmlns="http://www.w3.org/2000/svg"><path d="M804 5105c-317-50-627-315-754-646C0 4328 0 4331 0 2560S0 792 50 661c55-143 137-265 253-378C464 127 621 44 812 15 958-7 4162-7 4308 15c197 30 370 124 529 288 156 161 239 318 268 509 13 84 15 341 15 1748 0 1771 0 1768-50 1899-106 275-336 505-611 611-132 50-126 50-1911 49-1294-1-1681-4-1744-14zm1746-1165v-959l-152-3-153-3v-830l151-3 152-3 5-227c4-203 7-237 31-327 69-265 220-442 444-520 234-82 545-70 938 35 65 17 125 36 132 42 9 8 12 87 10 362l-3 351-275 5c-353 6-330-5-330 160v120h309c171 0 312 4 315 8 7 12-125 804-137 820-7 9-69 12-248 12h-239v1922l368-4c343-4 372-6 440-26 280-85 483-289 564-569l23-78V895l-23-78c-81-282-287-488-569-569l-78-23H895l-78 23c-282 81-488 287-569 569l-23 78v3330l23 78c90 311 337 534 650 587 26 4 408 8 850 9l802 1v-960zm712-112l3-1073 262-3c263-2 263-2 268-25 9-40 55-324 55-341 0-14-32-16-292-18l-293-3v-510l28-57c27-54 71-99 127-128 53-28 132-41 293-47l167-6v-296l-41-11c-90-25-250-51-353-59-349-26-561 72-646 299-44 118-51 183-58 505l-7 310-152 3-153 3v378l153 3 152 3 3 1073 2 1072h480l2-1072z"/></symbol><symbol viewBox="0 0 512 512" id="gmail" xmlns="http://www.w3.org/2000/svg"><path d="M479.536 58.794H32.464C14.564 58.794 0 73.358 0 91.258v329.483c0 17.9 14.564 32.464 32.464 32.464h447.072c17.9 0 32.464-14.564 32.464-32.464V91.258c0-17.9-14.564-32.464-32.464-32.464zm-41.669 18.373L256 209.723 74.133 77.167h363.734zM57.569 434.832H32.464c-7.769 0-14.091-6.322-14.091-14.091V135.199l39.196 28.569v271.064zm378.488 0H75.943V177.161L250.59 304.457a9.168 9.168 0 0 0 5.41 1.763c1.9 0 3.8-.588 5.41-1.763L436.057 177.16v257.672zm57.57-14.091c0 7.769-6.322 14.091-14.091 14.091h-25.105V163.768l39.196-28.569v285.542zm0-308.277L256 285.665 18.373 112.464V91.258c0-7.769 6.322-14.091 14.091-14.091H42.94l207.65 151.348a9.17 9.17 0 0 0 5.41 1.763 9.17 9.17 0 0 0 5.41-1.763L469.059 77.167h10.476c7.769 0 14.091 6.322 14.091 14.091v21.206z"/></symbol><symbol viewBox="0 0 460.298 460.297" id="home" xmlns="http://www.w3.org/2000/svg"><path d="M230.149 120.939L65.986 256.274c0 .191-.048.472-.144.855-.094.38-.144.656-.144.852v137.041c0 4.948 1.809 9.236 5.426 12.847 3.616 3.613 7.898 5.431 12.847 5.431h109.63V303.664h73.097v109.64h109.629c4.948 0 9.236-1.814 12.847-5.435 3.617-3.607 5.432-7.898 5.432-12.847V257.981c0-.76-.104-1.334-.288-1.707L230.149 120.939z"/><path d="M457.122 225.438L394.6 173.476V56.989c0-2.663-.856-4.853-2.574-6.567-1.704-1.712-3.894-2.568-6.563-2.568h-54.816c-2.666 0-4.855.856-6.57 2.568-1.711 1.714-2.566 3.905-2.566 6.567v55.673l-69.662-58.245c-6.084-4.949-13.318-7.423-21.694-7.423-8.375 0-15.608 2.474-21.698 7.423L3.172 225.438c-1.903 1.52-2.946 3.566-3.14 6.136-.193 2.568.472 4.811 1.997 6.713l17.701 21.128c1.525 1.712 3.521 2.759 5.996 3.142 2.285.192 4.57-.476 6.855-1.998L230.149 95.817l197.57 164.741c1.526 1.328 3.521 1.991 5.996 1.991h.858c2.471-.376 4.463-1.43 5.996-3.138l17.703-21.125c1.522-1.906 2.189-4.145 1.991-6.716-.195-2.563-1.242-4.609-3.141-6.132z"/></symbol><symbol viewBox="0 0 24 24" id="house" xmlns="http://www.w3.org/2000/svg"><path d="M21 13v10h-6v-6H9v6H3V13H0L12 1l12 12h-3zm-1-5.907V2h-3v2.093l3 3z"/></symbol><symbol viewBox="0 0 4720 4720" id="instagram" xmlns="http://www.w3.org/2000/svg"><path d="M1115 4705c-263-31-510-158-726-374-221-222-343-462-374-741-21-183-21-2277 0-2460 31-279 153-519 374-741C611 168 851 46 1130 15c183-21 2277-21 2460 0 279 31 519 153 741 374 221 222 343 462 374 741 21 183 21 2277 0 2460-31 279-153 519-374 741-222 221-462 343-741 374-173 20-2307 19-2475 0zm2497-233c441-100 763-423 860-865l23-102V1215l-23-102c-98-444-421-767-865-865l-102-23H1215l-102 23c-444 98-767 421-865 865l-23 102v2290l23 102c109 492 500 839 997 883 50 4 580 7 1180 6 1081-2 1091-3 1187-24z"/><path d="M2170 3589c-484-77-886-439-1009-906-31-117-41-196-41-323 0-291 89-547 266-769 203-253 476-412 794-461 84-13 276-13 360 0 318 49 591 208 794 461 177 222 266 478 266 769s-89 547-266 769c-203 253-476 412-794 461-77 12-293 11-370-1zm340-234c221-33 419-134 571-292 334-344 381-865 114-1268-201-303-579-478-940-436-482 56-840 414-896 896-50 424 198 856 586 1022 198 86 366 109 565 78zm1110-2118c-74-24-150-129-150-208 0-81 67-175 146-205 93-35 209 6 260 92 55 94 40 199-40 272-63 58-135 74-216 49z"/></symbol><symbol viewBox="0 0 407.436 407.436" id="left-chevron" xmlns="http://www.w3.org/2000/svg"><path d="M315.869 21.178L294.621 0 91.566 203.718l203.055 203.718 21.248-21.178-181.945-182.54z"/></symbol><symbol viewBox="0 0 414.298 414.299" id="light-del" xmlns="http://www.w3.org/2000/svg"><path d="M3.663 410.637a12.465 12.465 0 0 0 8.839 3.661c3.199 0 6.398-1.221 8.839-3.661l185.809-185.81 185.81 185.811a12.465 12.465 0 0 0 8.84 3.661c3.198 0 6.397-1.221 8.839-3.661 4.881-4.881 4.881-12.796 0-17.679l-185.811-185.81 185.811-185.81c4.881-4.882 4.881-12.796 0-17.678-4.882-4.882-12.796-4.882-17.679 0l-185.81 185.81L21.34 3.663c-4.882-4.882-12.796-4.882-17.678 0-4.882 4.881-4.882 12.796 0 17.678l185.81 185.809L3.663 392.959c-4.882 4.882-4.882 12.797 0 17.678z"/></symbol><symbol viewBox="0 0 31.797 31.797" id="mail" xmlns="http://www.w3.org/2000/svg"><path d="M0 5.713v20.371h31.797V5.713H0zm29.201 1.379L15.899 18.178 2.595 7.092h26.606zM1.38 24.704V7.875l14.519 12.098L30.417 7.875v16.83L1.38 24.704z"/></symbol><symbol viewBox="0 0 463.009 463.009" id="phone" xmlns="http://www.w3.org/2000/svg"><path d="M462.692 381.085c-1.472-11.126-7.895-20.719-17.62-26.318L330.846 289c-13.99-8.055-31.738-5.71-43.157 5.708l-22.499 22.499c-5.987 5.988-15.459 6.518-22.028 1.231-17.737-14.272-35.201-29.979-51.906-46.685-16.705-16.705-32.412-34.168-46.685-51.906-5.287-6.57-4.758-16.041 1.231-22.029l22.498-22.499c11.418-11.417 13.766-29.163 5.709-43.156L108.242 17.937C102.642 8.211 93.05 1.789 81.924.317c-11.127-1.475-22.06 2.236-29.996 10.172L18.027 44.391c-23.661 23.662-24.041 66.944-1.07 121.875 22.088 52.818 63.308 110.962 116.065 163.721 52.759 52.758 110.903 93.978 163.722 116.066 27.039 11.307 51.253 16.957 71.697 16.956 21.088 0 38.163-6.013 50.178-18.027l33.901-33.902c7.935-7.936 11.643-18.869 10.172-29.995zm-139.33-79.086l114.226 65.767c5.649 3.252 9.379 8.824 10.233 15.286.718 5.423-.691 10.763-3.885 15.066L292.131 311.48l6.165-6.165c6.631-6.631 16.941-7.994 25.066-3.316zM79.956 15.188c6.463.855 12.034 4.585 15.286 10.234l65.767 114.226c4.68 8.127 3.316 18.435-3.315 25.065l-5.663 5.663L64.917 19.073c3.561-2.637 7.82-4.069 12.26-4.069.921 0 1.85.061 2.779.184zm328.055 419.187c-18.798 18.798-57.244 18.01-105.48-2.162-51.06-21.352-107.491-61.424-158.901-112.833-51.41-51.41-91.482-107.842-112.834-158.901-20.173-48.237-20.96-86.683-2.162-105.482l25.167-25.168 87.245 151.532-5.851 5.851c-11.415 11.416-12.409 29.488-2.311 42.04 14.609 18.156 30.68 36.024 47.764 53.108 17.086 17.085 34.954 33.156 53.109 47.765 12.55 10.098 30.622 9.105 42.04-2.312l5.338-5.338 152.016 86.759-25.14 25.141z"/></symbol><symbol viewBox="0 0 55 55" id="profile-user" xmlns="http://www.w3.org/2000/svg"><path d="M55 27.5C55 12.337 42.663 0 27.5 0S0 12.337 0 27.5c0 8.009 3.444 15.228 8.926 20.258l-.026.023.892.752c.058.049.121.089.179.137.474.393.965.766 1.465 1.127.162.117.324.234.489.348.534.368 1.082.717 1.642 1.048.122.072.245.142.368.212a27.44 27.44 0 0 0 1.88.98l.142.064a27.252 27.252 0 0 0 6.651 2.105l.184.033c.724.125 1.456.225 2.197.292.09.008.18.013.271.021.738.061 1.484.1 2.24.1.749 0 1.488-.039 2.222-.098l.279-.021a27.808 27.808 0 0 0 2.178-.287l.187-.034a27.251 27.251 0 0 0 6.557-2.055c.076-.035.153-.068.229-.104a27.639 27.639 0 0 0 2.25-1.189 27.514 27.514 0 0 0 1.581-1c.185-.126.366-.259.549-.391.439-.316.87-.642 1.289-.983.093-.075.193-.14.284-.217l.915-.764-.027-.023C51.523 42.802 55 35.55 55 27.5zm-53 0C2 13.439 13.439 2 27.5 2S53 13.439 53 27.5c0 7.577-3.325 14.389-8.589 19.063a7.494 7.494 0 0 0-.893-.537l-8.467-4.233a2.217 2.217 0 0 1-1.232-1.993v-2.957c.196-.242.403-.516.617-.817a20.378 20.378 0 0 0 2.616-5.123 3.63 3.63 0 0 0 2.085-3.289v-3.545c0-.867-.318-1.708-.887-2.369v-4.667c.052-.519.236-3.448-1.883-5.864C34.524 9.065 31.541 8 27.5 8s-7.024 1.065-8.867 3.168c-2.119 2.416-1.935 5.345-1.883 5.864v4.667a3.644 3.644 0 0 0-.887 2.369v3.545c0 1.101.494 2.128 1.34 2.821.81 3.173 2.477 5.575 3.093 6.389v2.894a2.23 2.23 0 0 1-1.162 1.958l-7.907 4.313a7.227 7.227 0 0 0-.752.476C5.276 41.792 2 35.022 2 27.5zm40.459 20.632c-.35.254-.706.5-1.067.735-.166.108-.331.216-.5.321-.472.292-.952.57-1.442.83-.108.057-.217.111-.326.167a25.481 25.481 0 0 1-3.488 1.476l-.127.043c-.627.208-1.262.393-1.904.552l-.006.001a25.59 25.59 0 0 1-1.964.402l-.054.01c-.621.101-1.247.174-1.875.229-.111.01-.222.017-.334.025-.621.047-1.245.077-1.872.077a25.43 25.43 0 0 1-1.895-.078c-.109-.008-.218-.015-.326-.025a25.862 25.862 0 0 1-1.89-.233l-.084-.015a25.405 25.405 0 0 1-3.89-.971l-.118-.04a25.86 25.86 0 0 1-1.862-.713l-.013-.006a26.094 26.094 0 0 1-1.705-.816c-.073-.038-.147-.074-.219-.113a25.7 25.7 0 0 1-1.939-1.155 25.417 25.417 0 0 1-1.338-.933l-.133-.104.096-.054 7.907-4.313a4.229 4.229 0 0 0 2.205-3.714l-.001-3.602-.23-.278c-.022-.025-2.184-2.655-3.001-6.216l-.091-.396-.341-.221a1.657 1.657 0 0 1-.769-1.392v-3.545c0-.465.197-.898.557-1.223l.33-.298v-5.57l-.009-.131c-.003-.024-.298-2.429 1.396-4.36C21.583 10.837 24.061 10 27.5 10c3.426 0 5.896.83 7.346 2.466 1.692 1.911 1.415 4.361 1.413 4.381l-.009 5.701.33.298c.359.324.557.758.557 1.223v3.545a1.67 1.67 0 0 1-1.181 1.575l-.497.153-.16.495a18.5 18.5 0 0 1-2.496 5.032c-.262.37-.517.698-.736.949l-.248.283V39.8c0 1.612.896 3.062 2.338 3.782l8.467 4.233.16.083c-.107.081-.217.156-.325.234z"/></symbol><symbol viewBox="0 0 508 508" id="return" xmlns="http://www.w3.org/2000/svg"><path d="M254 0C128.3 0 26.1 102.2 26.1 227.9c0 122.9 97.9 223.4 219.8 227.7V508l60.3-60.3-60.3-60.3v52c-113-4.4-203.5-97.5-203.5-211.5 0-116.7 94.9-211.6 211.6-211.6s211.6 94.9 211.6 211.6h16.3C481.9 102.2 379.7 0 254 0zm8.1 426.6l21 21-21 21v-42z"/><path d="M131.9 105.8V350h244.2V105.8H131.9zm97.7 16.3h48.8v32.6h-48.8v-32.6zm130.2 211.6H148.2V122.1h65.1v48.8h81.4v-48.8h65.1v211.6z"/><path d="M319.1 248.2l-27.9 31.3 12.2 10.8 7.6-8.5v35.6h16.3v-35.6l7.5 8.5 12.2-10.8zm-67.7 0l-27.9 31.3 12.2 10.8 7.5-8.5v35.6h16.3v-35.6l7.6 8.5 12.1-10.8z"/></symbol><symbol viewBox="0 0 407.436 407.436" id="right-chevron" xmlns="http://www.w3.org/2000/svg"><path d="M112.814 0L91.566 21.178l181.946 182.54-181.946 182.54 21.248 21.178 203.055-203.718z"/></symbol><symbol viewBox="0 0 53.627 53.627" id="search" xmlns="http://www.w3.org/2000/svg"><path d="M53.627 49.385L37.795 33.553C40.423 30.046 42 25.709 42 21 42 9.42 32.58 0 21 0S0 9.42 0 21s9.42 21 21 21c4.709 0 9.046-1.577 12.553-4.205l15.832 15.832 4.242-4.242zM2 21C2 10.523 10.523 2 21 2s19 8.523 19 19-8.523 19-19 19S2 31.477 2 21zm33.567 15.093c.178-.172.353-.347.525-.525.146-.151.304-.29.445-.445l14.262 14.262-1.415 1.415-14.261-14.263c.155-.141.293-.299.444-.444z"/></symbol><symbol viewBox="0 0 616.832 616.832" id="skype" xmlns="http://www.w3.org/2000/svg"><path d="M385.649 263.005a15.989 15.989 0 0 0-1.451-.334C313.239 249.991 271.586 231 271.47 231c-9.212-5.223-14.537-10.765-14.987-15.611-.479-5.194 4.367-11.447 7.428-14.392 17.772-9.01 34.414-13.58 49.501-13.58 32.978 0 48.486 21.922 49.14 22.851 21.588 31.918 43.742 48.109 65.853 48.109 14.812 0 23.634-7.442 24.998-8.705 14.565-12.782 22.284-28.407 22.313-45.208.058-32.18-27.174-57.163-29.988-59.644-32.702-30.496-76.241-45.962-129.37-45.962-49.56 0-89.196 13.812-90.647 14.319-85.308 28.654-92.345 102.196-84.147 137.088.13.551.29 1.088.479 1.61 31.483 87.121 163.522 98.395 169.122 98.83 60.412 4.773 63.228 32.963 63.329 34.572 2.104 29.408-50.634 38.49-58.788 39.709-52.722-2.973-65.388-23.111-65.417-23.111a15.258 15.258 0 0 0-1.48-2.422c-28.973-38.316-40.275-51.592-65.592-52.26l-1.958-.029c-20.312 0-32.31 8.561-38.795 15.758-16.481 18.25-14.334 44.656-14.044 47.6.073.639.174 1.277.319 1.902 23.459 98.133 148.637 100.961 162.84 100.961h.349c7.646.451 14.987.668 22.052.668 167.207 0 178.668-122.158 178.727-123.117 7.282-74.831-66.841-116.412-107.058-127.931zm78.2 125.366c-.377 4.135-11.954 105.547-170.63 96.059-.29-.029-1.32-.029-1.61-.029-11.795 0-115.297-2.191-134.346-77.561-.145-3.338-.232-16.742 6.746-24.447 3.758-4.164 10.011-6.398 18.469-6.166 10.489.275 15.03 3.525 42.61 39.971 4.498 7.588 25.027 34.559 90.516 37.852a14.18 14.18 0 0 0 2.365-.072c33.354-3.787 88.906-22.951 85.526-69.959-.044-2.248-1.901-55.262-90.053-62.225-1.176-.088-117.966-9.982-143.791-78.926-1.741-8.415-13.028-75.863 65.519-102.253.363-.131 36.561-12.738 81.202-12.738 45.556 0 82.421 12.839 109.842 38.403 5.73 5.122 20.587 21.995 20.515 38.229-.044 8.415-4.106 16.046-12.245 23.199-.087.058-2.22 1.654-6.05 1.654-5.397 0-20.239-3.438-41.74-35.241-.973-1.465-24.243-35.719-73.237-35.719-20.239 0-41.929 5.949-64.46 17.657a14.173 14.173 0 0 0-2.466 1.625c-2.133 1.741-20.805 17.656-18.919 40.072 1.277 15.117 11.229 28.059 30.583 38.998 1.813.856 44.946 20.819 120.128 34.341 8.981 2.725 92.04 29.913 85.526 97.276zm137.48-26.869c4.569-25.768 21.907-156.574-75.632-252.487-7.399-8.618-80.593-89.574-215.331-89.574-15.175 0-30.743 1.059-46.354 3.148C251.652 16.089 216.629 0 172.858 0c-47.166 0-89.08 18.208-124.742 54.304-.812.856-80.927 86.411-27.13 196.63-4.033 18.527-13.362 78.896 14.741 152.423 1.552 5.541 39.418 136.246 182.47 178.887 1.944.74 48.225 18.135 112.119 18.135 9.938 0 19.876-.436 29.611-1.277 11.012 4.963 43.162 17.73 82.711 17.73 47.282 0 89.486-18.629 121.637-53.463 3.322-3.322 80.143-82.002 37.054-201.867zM543.354 543.26c-27.304 29.568-61.195 44.555-100.716 44.555-40.768 0-73.165-16.277-73.455-16.424a14.536 14.536 0 0 0-8.096-1.537 311.668 311.668 0 0 1-30.771 1.51c-58.25 0-101.34-16.061-102.776-16.584C99.2 516.508 64.018 396.771 63.263 394.305c-29.989-78.621-13.145-140.556-12.985-141.122a14.559 14.559 0 0 0-1.074-10.721C.312 148.637 66.281 77.329 68.921 74.529c29.843-30.192 64.822-45.513 103.937-45.513 45.266 0 80.521 20.819 80.84 21.008 2.887 1.755 6.34 2.452 9.633 1.944 15.843-2.336 31.671-3.525 47.006-3.525 125.177 0 192.901 78.954 193.54 79.723.319.377.653.754 1.016 1.103 95.246 93.187 67.507 229.041 67.217 230.406a14.62 14.62 0 0 0 .609 8.197c39.419 104.079-26.188 172.167-29.365 175.388z"/></symbol><symbol viewBox="0 0 511.641 511.641" id="slider-left-chevron" xmlns="http://www.w3.org/2000/svg"><path d="M148.32 255.76L386.08 18c4.053-4.267 3.947-10.987-.213-15.04a10.763 10.763 0 0 0-14.827 0L125.707 248.293a10.623 10.623 0 0 0 0 15.04L371.04 508.667c4.267 4.053 10.987 3.947 15.04-.213a10.763 10.763 0 0 0 0-14.827L148.32 255.76z"/></symbol><symbol viewBox="0 0 511.949 511.949" id="slider-right-chevron" xmlns="http://www.w3.org/2000/svg"><path d="M386.235 248.308L140.902 2.975c-4.267-4.053-10.987-3.947-15.04.213a10.763 10.763 0 0 0 0 14.827l237.76 237.76-237.76 237.867c-4.267 4.053-4.373 10.88-.213 15.04 4.053 4.267 10.88 4.373 15.04.213l.213-.213 245.333-245.333a10.624 10.624 0 0 0 0-15.041z"/></symbol><symbol viewBox="0 0 55.867 55.867" id="star" xmlns="http://www.w3.org/2000/svg"><path d="M11.287 54.548a.997.997 0 0 1-.985-1.169l3.091-18.018L.302 22.602a1.001 1.001 0 0 1 .555-1.705l18.09-2.629 8.091-16.393a.996.996 0 1 1 1.792 0l8.09 16.393 18.091 2.629a1.002 1.002 0 0 1 .555 1.705L42.475 35.363l3.09 18.017c.064.375-.09.754-.397.978a.993.993 0 0 1-1.054.076l-16.18-8.506-16.182 8.506a1.008 1.008 0 0 1-.465.114zM3.149 22.584l12.016 11.713a1 1 0 0 1 .287.885L12.615 51.72l14.854-7.808a.996.996 0 0 1 .931 0l14.852 7.808-2.836-16.538a1 1 0 0 1 .287-.885l12.016-11.713-16.605-2.413a1 1 0 0 1-.753-.547L27.934 4.578l-7.427 15.047a1 1 0 0 1-.753.547L3.149 22.584z"/></symbol><symbol viewBox="0 0 28.159 28.159" id="transport" xmlns="http://www.w3.org/2000/svg"><path d="M8.224 6.164H3.485L0 13.501v6.788h4.577a2.705 2.705 0 0 0-.662 1.775 2.716 2.716 0 1 0 4.768-1.775h11.221a2.716 2.716 0 1 0 4.11 0h2.582v-1.192H8.224V6.164zm-5.627 7.127L4.21 9.049h2.558v4.242H2.597zm4.033 7.8a.973.973 0 0 1 0 1.945.974.974 0 0 1 0-1.945zm15.33 0a.973.973 0 0 1 0 1.945.973.973 0 0 1 0-1.945z"/><path d="M9.67 3.381h18.489v14.04H9.67z"/></symbol><symbol viewBox="0 0 201.462 201.463" id="up-chevron" xmlns="http://www.w3.org/2000/svg"><path d="M8.28 155.229L0 146.95 100.723 46.222l100.739 100.74-8.279 8.279-92.46-92.455L8.28 155.229z"/></symbol><symbol viewBox="0 0 60 60" id="user" xmlns="http://www.w3.org/2000/svg"><path d="M48.014 42.889l-9.553-4.776A2.63 2.63 0 0 1 37 35.748v-3.381c.229-.28.47-.599.719-.951a22.886 22.886 0 0 0 2.954-5.799A3.968 3.968 0 0 0 43 22v-4c0-.963-.36-1.896-1-2.625v-5.319c.056-.55.276-3.824-2.092-6.525C37.854 1.188 34.521 0 30 0s-7.854 1.188-9.908 3.53C17.724 6.231 17.944 9.506 18 10.056v5.319c-.64.729-1 1.662-1 2.625v4c0 1.217.553 2.352 1.497 3.109.916 3.627 2.833 6.36 3.503 7.237v3.309c0 .968-.528 1.856-1.377 2.32l-8.921 4.866A9.018 9.018 0 0 0 7 50.762V54c0 4.746 15.045 6 23 6s23-1.254 23-6v-3.043a8.973 8.973 0 0 0-4.986-8.068zM51 54c0 1.357-7.412 4-21 4S9 55.357 9 54v-3.238a7.016 7.016 0 0 1 3.659-6.164l8.921-4.866A4.644 4.644 0 0 0 24 35.655v-4.019l-.233-.278c-.024-.029-2.475-2.994-3.41-7.065l-.091-.396-.341-.22A1.995 1.995 0 0 1 19 22v-4c0-.561.238-1.084.67-1.475l.33-.297V10l-.009-.131c-.003-.027-.343-2.799 1.605-5.021C23.253 2.958 26.081 2 30 2c3.905 0 6.727.951 8.386 2.828 1.947 2.201 1.625 5.017 1.623 5.041L40 16.228l.33.298c.432.39.67.913.67 1.474v4c0 .873-.572 1.637-1.422 1.899l-.498.153-.16.495a20.934 20.934 0 0 1-2.834 5.713c-.297.421-.586.794-.837 1.079l-.249.284v4.125c0 1.77.983 3.361 2.566 4.153l9.553 4.776A6.982 6.982 0 0 1 51 50.957V54z"/></symbol><symbol viewBox="0 0 198.43 141.73" id="user-plus" xmlns="http://www.w3.org/2000/svg"><path d="M141.768 101.311l-22.566-11.282a6.211 6.211 0 0 1-3.451-5.586v-7.987a40.198 40.198 0 0 0 1.698-2.246c2.927-4.134 5.272-8.735 6.978-13.698 3.334-1.528 5.497-4.823 5.497-8.544V42.52c0-2.275-.851-4.479-2.362-6.201V23.754c.133-1.299.652-9.032-4.941-15.413C117.768 2.806 109.895 0 99.215 0 88.536 0 80.663 2.806 75.811 8.339c-5.594 6.38-5.074 14.116-4.942 15.415v12.564c-1.512 1.723-2.362 3.926-2.362 6.201v9.448a9.392 9.392 0 0 0 3.536 7.344c2.164 8.568 6.692 15.023 8.274 17.096v7.816a6.24 6.24 0 0 1-3.252 5.479l-21.073 11.495a21.298 21.298 0 0 0-11.107 18.71v7.649c0 11.211 35.539 14.173 54.33 14.173s54.33-2.962 54.33-14.173v-7.188c0-8.12-4.514-15.424-11.777-19.057zm7.052 26.246c0 3.205-17.508 9.448-49.605 9.448-32.097 0-49.605-6.243-49.605-9.448v-7.649a16.574 16.574 0 0 1 8.643-14.56l21.073-11.495a10.969 10.969 0 0 0 5.717-9.63v-9.494l-.55-.656c-.057-.068-5.847-7.072-8.055-16.688l-.215-.936-.806-.52c-1.368-.884-2.185-2.365-2.185-3.962v-9.448c0-1.325.562-2.561 1.583-3.484l.78-.701V23.622l-.021-.31c-.007-.063-.81-6.611 3.792-11.86C83.28 6.987 89.96 4.724 99.218 4.724c9.225 0 15.891 2.246 19.809 6.681 4.6 5.198 3.839 11.851 3.834 11.907l-.021 15.021.78.703c1.021.922 1.583 2.157 1.583 3.482v9.448c0 2.063-1.352 3.867-3.359 4.486l-1.177.361-.378 1.169c-1.58 4.916-3.831 9.456-6.694 13.495-.701.994-1.384 1.875-1.978 2.549l-.588.671v9.744a10.91 10.91 0 0 0 6.062 9.81l22.565 11.282c5.655 2.827 9.168 8.511 9.168 14.834v7.19z"/><text transform="translate(118.343 104.283)" font-family="'MyriadPro-Regular'" font-size="106.095">+</text></symbol><symbol viewBox="0 0 52.511 52.511" id="viber" xmlns="http://www.w3.org/2000/svg"><path d="M31.256 0H21.254C10.778 0 2.255 8.521 2.255 18.995v9.01c0 7.8 4.793 14.81 12 17.665v5.841a.999.999 0 0 0 1.671.741L21.725 47h9.531c10.476 0 18.999-8.521 18.999-18.995v-9.01C50.255 8.521 41.732 0 31.256 0zm16.999 28.005C48.255 37.376 40.63 45 31.256 45h-9.917a.998.998 0 0 0-.671.259l-4.413 3.997v-4.279a.997.997 0 0 0-.667-.942 17.03 17.03 0 0 1-11.333-16.03v-9.01C4.255 9.624 11.881 2 21.254 2h10.002c9.374 0 16.999 7.624 16.999 16.995v9.01z"/><path d="M39.471 30.493l-6.146-3.992a2.994 2.994 0 0 0-4.15.88l-.289.444c-2.66-.879-5.593-2.002-7.349-7.085l.727-.632a3.005 3.005 0 0 0 .294-4.233l-4.808-5.531a1.001 1.001 0 0 0-1.411-.099l-3.019 2.624c-2.648 2.302-1.411 5.707-1.004 6.826.018.05.04.098.066.145.105.188 2.612 4.662 6.661 8.786 4.065 4.141 11.404 7.965 11.629 8.076a5.006 5.006 0 0 0 6.916-1.47l2.178-3.354c.3-.465.168-1.084-.295-1.385zm-3.561 3.649c-.901 1.388-2.763 1.782-4.233.834-.073-.038-7.364-3.835-11.207-7.75-3.592-3.659-5.977-7.724-6.302-8.291-.792-2.221-.652-3.586.464-4.556l2.265-1.968 4.152 4.776a.99.99 0 0 1-.096 1.411l-1.227 1.066a.999.999 0 0 0-.3 1.049c2.092 6.798 6.16 8.133 9.13 9.108l.433.143a.996.996 0 0 0 1.155-.403l.709-1.092a.988.988 0 0 1 .63-.434.99.99 0 0 1 .753.143l5.308 3.447-1.634 2.517zm-7.372-17.895a1 1 0 1 0-.548 1.923 4.524 4.524 0 0 1 3.097 3.104 1 1 0 0 0 1.925-.542 6.538 6.538 0 0 0-4.474-4.485z"/><path d="M36.148 22.219a1 1 0 0 0 .963-1.271c-1.18-4.183-4.509-7.519-8.689-8.709a1 1 0 1 0-.547 1.924c3.517 1 6.318 3.809 7.311 7.328a1 1 0 0 0 .962.728z"/><path d="M27.991 7.582a1 1 0 1 0-.548 1.924c5.959 1.695 10.706 6.453 12.388 12.416a1 1 0 0 0 1.925-.542c-1.869-6.627-7.143-11.913-13.765-13.798z"/></symbol><symbol viewBox="0 0 16000 16000" id="vk" xmlns="http://www.w3.org/2000/svg"><path d="M2955 15988c-245-19-578-100-840-204-552-220-1028-573-1410-1049-102-127-269-387-352-550-201-394-312-774-342-1165-16-205-16-9835 0-10040 59-775 463-1571 1080-2127C1633 365 2315 61 2980 11c205-16 9835-16 10040 0 620 47 1269 320 1788 753 670 560 1120 1402 1181 2216 16 206 16 9835 0 10040-70 928-630 1861-1449 2416-465 316-1013 515-1520 553-178 14-9895 13-10065-1zm9850-648c836-48 1567-453 2053-1136 259-365 419-792 474-1264 19-169 19-9708 0-9880-94-816-523-1521-1194-1963-355-234-755-377-1193-429-162-19-9728-19-9890 0-438 52-838 195-1193 429-669 441-1098 1144-1194 1958-19 164-19 9717 0 9885 91 796 498 1482 1147 1932 392 271 880 440 1353 467 206 12 9433 13 9637 1z"/><path d="M11195 11514c-107-20-294-83-394-133-283-143-488-318-869-746-237-265-401-431-478-482-47-31-58-35-79-25-69 32-116 209-130 487-9 201-47 303-155 419-71 75-117 105-226 143l-79 28-615 3c-723 4-957-7-1255-58-722-125-1316-441-1867-994-636-638-1388-1722-2110-3041-274-500-635-1215-679-1345-31-92-38-249-14-336 22-82 75-164 153-236 66-61 132-97 227-125 55-16 138-18 988-21 914-3 930-2 1004 18 160 44 295 123 404 236 81 86 99 116 192 334 176 412 358 771 570 1125 231 387 464 724 605 876l66 72 17-94c35-194 44-337 43-694-2-524-24-744-92-898-17-39-29-49-86-77-37-17-109-42-162-55-120-30-173-56-232-114-85-82-123-198-102-311 23-127 56-184 179-313 197-207 490-321 906-356 226-19 470-22 870-12 599 15 845 53 1056 162 203 105 326 264 385 496 45 176 50 338 31 896-30 877-31 1286-3 1314 16 17 199-198 351-411 346-488 644-1034 882-1616 89-218 106-246 207-345 104-104 185-150 326-186 83-22 103-22 1040-29 951-8 1107-5 1252 25 212 44 374 189 434 390 13 44 18 92 18 180 0 171-27 264-149 520-149 314-395 697-735 1145-680 898-866 1151-889 1213-9 23-5 33 31 79 57 71 168 181 383 377 225 205 692 671 812 811 209 244 355 451 453 645 75 146 95 227 95 375 0 142-23 217-99 329-99 145-282 263-491 317-94 25-121 27-435 34-184 4-591 11-905 14-480 4-583 3-650-10zm1008-664c678-10 744-13 814-31 42-10 78-21 80-23 12-12-109-210-209-343-186-246-459-531-873-913-436-402-527-502-606-667-114-239-104-463 32-735 86-171 163-275 558-758 474-578 830-1089 997-1433 48-98 80-194 69-205-4-4-426-5-938-4-809 3-934 6-949 19-9 8-26 40-39 71-167 424-390 875-617 1252-286 475-508 783-731 1013-261 269-460 360-692 317-96-18-176-65-270-159-99-99-148-179-191-313-58-181-63-245-61-748 1-250 10-660 19-911 20-569 10-709-50-737-51-23-259-62-391-73-89-7-268-9-495-6-354 5-495 16-703 53l-88 16 34 24c57 38 138 174 183 308 53 154 77 345 94 736 28 639-15 1135-123 1432-88 244-301 398-549 398-107 0-168-15-273-65-253-122-543-464-940-1109-273-445-467-817-682-1311-40-93-81-177-91-186-9-9-39-24-66-33-44-14-131-16-763-16h-714l7 23c9 31 185 382 311 622 686 1304 1325 2298 1952 3035 149 176 448 474 581 579 395 315 798 486 1283 546 69 8 246 20 394 25 356 13 1070 13 1078 0 3-5 10-73 16-151 11-152 27-246 61-349 125-384 487-645 819-590 134 22 263 83 404 189 97 73 261 237 530 531 370 404 487 509 660 597 127 65 280 106 355 97 19-2 367-9 773-14z"/></symbol></svg>