<?xml version="1.0" encoding="utf-8"?>
<!-- Generator: Adobe Illustrator 14.0.0, SVG Export Plug-In . SVG Version: 6.00 Build 43363)  -->
<!DOCTYPE svg PUBLIC "-//W3C//DTD SVG 1.1//EN" "http://www.w3.org/Graphics/SVG/1.1/DTD/svg11.dtd">
<svg version="1.1" id="Capa_1" xmlns="http://www.w3.org/2000/svg" xmlns:xlink="http://www.w3.org/1999/xlink" x="0px" y="0px"
	 width="148px" height="161px" viewBox="0 0 148 161" enable-background="new 0 0 148 161" xml:space="preserve">
<g>
	<path d="M2.272,52.673c0,0.061,0.033,0.113,0.036,0.177c-0.043,0.367-0.033,0.747,0.07,1.126l16.197,59.727
		c0.059,0.22,0.172,0.408,0.275,0.597c0.402,1.206,1.504,2.091,2.843,2.091l76.519,0.063l-4.337,14.39
		c-1.363-0.425-2.786-0.72-4.289-0.72c-3.024,0-5.825,0.938-8.146,2.529H29.396c-2.319-1.592-5.123-2.529-8.147-2.529
		c-7.965,0-14.427,6.459-14.427,14.427c0,7.966,6.459,14.427,14.427,14.427c7.972,0,14.428-6.461,14.428-14.427
		c0-2.077-0.455-4.038-1.244-5.821h41.974c-0.791,1.781-1.246,3.744-1.246,5.821c0,7.966,6.461,14.427,14.426,14.427
		c7.971,0,14.428-6.461,14.428-14.427c0-4.22-1.845-7.978-4.732-10.618l29.074-96.492l12.595,0.055c0.003,0,0.01,0,0.012,0
		c1.675,0,3.032-1.35,3.038-3.024c0.006-1.676-1.345-3.043-3.024-3.053l-14.869-0.063c-0.003,0-0.009,0-0.013,0
		c-1.592,0-2.863,1.235-2.988,2.797c-0.073,0.152-0.183,0.274-0.234,0.437l-4.57,15.177c-0.207-0.045-0.403-0.127-0.622-0.127H5.305
		C3.627,49.639,2.268,50.999,2.272,52.673z M29.603,144.548c0,4.61-3.746,8.353-8.354,8.353c-4.607,0-8.353-3.743-8.353-8.353
		c0-4.608,3.749-8.353,8.353-8.353C25.855,136.195,29.601,139.939,29.603,144.548z M97.936,144.548c0,4.61-3.744,8.353-8.353,8.353
		c-4.607,0-8.353-3.743-8.353-8.353c0-4.608,3.746-8.353,8.353-8.353C94.191,136.195,97.936,139.939,97.936,144.548z M9.141,55.716
		h107.366l-16.47,54.668l-76.088-0.062L9.141,55.716z"/>
</g>
<g>
	<path d="M32.058,55.333l-0.849-1.582c-2.775-5.172-4.242-11.022-4.242-16.918C26.967,17.075,43.041,1,62.799,1
		c19.76,0,35.834,16.075,35.834,35.833c0,5.897-1.467,11.747-4.241,16.918l-0.85,1.582H32.058L32.058,55.333z M89.893,49.333
		c1.797-3.896,2.74-8.182,2.74-12.5C92.633,20.383,79.249,7,62.799,7C46.35,7,32.967,20.383,32.967,36.833
		c0,4.317,0.943,8.603,2.742,12.5H89.893L89.893,49.333z"/>
</g>
<text transform="matrix(1 0 0 1 47.3027 48.0874)" font-family="'MyriadPro-Semibold'" font-size="48">4</text>
</svg>
