<!DOCTYPE svg PUBLIC "-//W3C//DTD SVG 20010904//EN" "http://www.w3.org/TR/2001/REC-SVG-20010904/DTD/svg10.dtd">
<svg version="1.0" xmlns="http://www.w3.org/2000/svg" width="512px" height="512px" viewBox="0 0 5120 5120" preserveAspectRatio="xMidYMid meet">
<g id="layer101" fill="#000000" stroke="none">
 <path d="M804 5105 c-317 -50 -627 -315 -754 -646 -50 -131 -50 -128 -50 -1899 0 -1771 0 -1768 50 -1899 55 -143 137 -265 253 -378 161 -156 318 -239 509 -268 146 -22 3350 -22 3496 0 197 30 370 124 529 288 156 161 239 318 268 509 13 84 15 341 15 1748 0 1771 0 1768 -50 1899 -106 275 -336 505 -611 611 -132 50 -126 50 -1911 49 -1294 -1 -1681 -4 -1744 -14z m1746 -1165 l0 -959 -152 -3 -153 -3 0 -415 0 -415 151 -3 152 -3 5 -227 c4 -203 7 -237 31 -327 69 -265 220 -442 444 -520 234 -82 545 -70 938 35 65 17 125 36 132 42 9 8 12 87 10 362 l-3 351 -275 5 c-353 6 -330 -5 -330 160 l0 120 309 0 c171 0 312 4 315 8 7 12 -125 804 -137 820 -7 9 -69 12 -248 12 l-239 0 0 961 0 961 368 -4 c343 -4 372 -6 440 -26 280 -85 483 -289 564 -569 l23 -78 0 -1665 0 -1665 -23 -78 c-81 -282 -287 -488 -569 -569 l-78 -23 -1665 0 -1665 0 -78 23 c-282 81 -488 287 -569 569 l-23 78 0 1665 0 1665 23 78 c90 311 337 534 650 587 26 4 408 8 850 9 l802 1 0 -960z m712 -112 l3 -1073 262 -3 c263 -2 263 -2 268 -25 9 -40 55 -324 55 -341 0 -14 -32 -16 -292 -18 l-293 -3 0 -255 0 -255 28 -57 c27 -54 71 -99 127 -128 53 -28 132 -41 293 -47 l167 -6 0 -148 0 -148 -41 -11 c-90 -25 -250 -51 -353 -59 -349 -26 -561 72 -646 299 -44 118 -51 183 -58 505 l-7 310 -152 3 -153 3 0 189 0 189 153 3 152 3 3 1073 2 1072 240 0 240 0 2 -1072z"/>
 </g>

</svg>