<!DOCTYPE svg PUBLIC "-//W3C//DTD SVG 20010904//EN" "http://www.w3.org/TR/2001/REC-SVG-20010904/DTD/svg10.dtd">
<svg version="1.0" xmlns="http://www.w3.org/2000/svg" width="472px" height="472px" viewBox="0 0 4720 4720" preserveAspectRatio="xMidYMid meet">
<g id="layer101" fill="#000000" stroke="none">
 <path d="M1115 4705 c-263 -31 -510 -158 -726 -374 -221 -222 -343 -462 -374 -741 -21 -183 -21 -2277 0 -2460 31 -279 153 -519 374 -741 222 -221 462 -343 741 -374 183 -21 2277 -21 2460 0 279 31 519 153 741 374 221 222 343 462 374 741 21 183 21 2277 0 2460 -31 279 -153 519 -374 741 -222 221 -462 343 -741 374 -173 20 -2307 19 -2475 0z m2497 -233 c441 -100 763 -423 860 -865 l23 -102 0 -1145 0 -1145 -23 -102 c-98 -444 -421 -767 -865 -865 l-102 -23 -1145 0 -1145 0 -102 23 c-444 98 -767 421 -865 865 l-23 102 0 1145 0 1145 23 102 c109 492 500 839 997 883 50 4 580 7 1180 6 1081 -2 1091 -3 1187 -24z"/>
 <path d="M2170 3589 c-484 -77 -886 -439 -1009 -906 -31 -117 -41 -196 -41 -323 0 -291 89 -547 266 -769 203 -253 476 -412 794 -461 84 -13 276 -13 360 0 318 49 591 208 794 461 177 222 266 478 266 769 0 291 -89 547 -266 769 -203 253 -476 412 -794 461 -77 12 -293 11 -370 -1z m340 -234 c221 -33 419 -134 571 -292 334 -344 381 -865 114 -1268 -201 -303 -579 -478 -940 -436 -482 56 -840 414 -896 896 -50 424 198 856 586 1022 198 86 366 109 565 78z"/>
 <path d="M3620 1237 c-74 -24 -150 -129 -150 -208 0 -81 67 -175 146 -205 93 -35 209 6 260 92 55 94 40 199 -40 272 -63 58 -135 74 -216 49z"/>
 </g>

</svg>