<?xml version="1.0" encoding="iso-8859-1"?>
<!-- Generator: Adobe Illustrator 18.1.1, SVG Export Plug-In . SVG Version: 6.00 Build 0)  -->
<svg version="1.1" id="Capa_1" xmlns="http://www.w3.org/2000/svg" xmlns:xlink="http://www.w3.org/1999/xlink" x="0px" y="0px"
	 viewBox="0 0 28.159 28.159" style="enable-background:new 0 0 28.159 28.159;" xml:space="preserve">
<g>
	<g>
		<g>
			<path style="fill:#010002;" d="M8.224,6.164H3.485L0,13.501v6.788h4.577c-0.412,0.476-0.662,1.097-0.662,1.775
				c0,1.498,1.217,2.715,2.715,2.715c1.499,0,2.715-1.217,2.715-2.715c0-0.68-0.249-1.301-0.662-1.775h11.221
				c-0.411,0.476-0.66,1.097-0.66,1.775c0,1.498,1.216,2.715,2.715,2.715s2.715-1.217,2.715-2.715c0-0.68-0.25-1.301-0.66-1.775
				h2.582v-1.192H8.224V6.164L8.224,6.164z M2.597,13.291L4.21,9.049h2.558v4.242H2.597L2.597,13.291z M6.63,21.091
				c0.537,0,0.972,0.437,0.972,0.972c0,0.536-0.436,0.973-0.972,0.973c-0.536,0-0.972-0.437-0.972-0.973
				C5.659,21.527,6.094,21.091,6.63,21.091L6.63,21.091z M21.96,21.091c0.537,0,0.972,0.437,0.972,0.972
				c0,0.536-0.435,0.973-0.972,0.973c-0.536,0-0.972-0.437-0.972-0.973S21.424,21.091,21.96,21.091z"/>
			<rect x="9.67" y="3.381" style="fill:#010002;" width="18.489" height="14.04"/>
		</g>
	</g>
</g>
<g>
</g>
<g>
</g>
<g>
</g>
<g>
</g>
<g>
</g>
<g>
</g>
<g>
</g>
<g>
</g>
<g>
</g>
<g>
</g>
<g>
</g>
<g>
</g>
<g>
</g>
<g>
</g>
<g>
</g>
</svg>
