<?xml version="1.0" encoding="utf-8"?>
<!-- Generator: Adobe Illustrator 14.0.0, SVG Export Plug-In . SVG Version: 6.00 Build 43363)  -->
<!DOCTYPE svg PUBLIC "-//W3C//DTD SVG 1.1//EN" "http://www.w3.org/Graphics/SVG/1.1/DTD/svg11.dtd">
<svg version="1.1" id="Capa_1" xmlns="http://www.w3.org/2000/svg" xmlns:xlink="http://www.w3.org/1999/xlink" x="0px" y="0px"
	 width="198.43px" height="141.73px" viewBox="0 0 198.43 141.73" enable-background="new 0 0 198.43 141.73" xml:space="preserve">
<path d="M141.768,101.311l-22.566-11.282c-2.129-1.065-3.451-3.205-3.451-5.586v-7.987c0.541-0.661,1.11-1.414,1.698-2.246
	c2.927-4.134,5.272-8.735,6.978-13.698c3.334-1.528,5.497-4.823,5.497-8.544v-9.448c0-2.275-0.851-4.479-2.362-6.201V23.754
	c0.133-1.299,0.652-9.032-4.941-15.413C117.768,2.806,109.895,0,99.215,0C88.536,0,80.663,2.806,75.811,8.339
	c-5.594,6.38-5.074,14.116-4.942,15.415v12.564c-1.512,1.723-2.362,3.926-2.362,6.201v9.448c0,2.875,1.306,5.556,3.536,7.344
	c2.164,8.568,6.692,15.023,8.274,17.096v7.816c0,2.286-1.247,4.384-3.252,5.479l-21.073,11.495
	c-6.853,3.739-11.107,10.905-11.107,18.71v7.649c0,11.211,35.539,14.173,54.33,14.173s54.33-2.962,54.33-14.173v-7.188
	C153.545,112.248,149.031,104.944,141.768,101.311z M148.82,127.557c0,3.205-17.508,9.448-49.605,9.448
	c-32.097,0-49.605-6.243-49.605-9.448v-7.649c0-6.073,3.312-11.654,8.643-14.56l21.073-11.495c3.527-1.925,5.717-5.617,5.717-9.63
	v-9.494l-0.55-0.656c-0.057-0.068-5.847-7.072-8.055-16.688l-0.215-0.936l-0.806-0.52c-1.368-0.884-2.185-2.365-2.185-3.962v-9.448
	c0-1.325,0.562-2.561,1.583-3.484l0.78-0.701V23.622l-0.021-0.31c-0.007-0.063-0.81-6.611,3.792-11.86
	c3.914-4.465,10.594-6.728,19.852-6.728c9.225,0,15.891,2.246,19.809,6.681c4.6,5.198,3.839,11.851,3.834,11.907l-0.021,15.021
	l0.78,0.703c1.021,0.922,1.583,2.157,1.583,3.482v9.448c0,2.063-1.352,3.867-3.359,4.486l-1.177,0.361l-0.378,1.169
	c-1.58,4.916-3.831,9.456-6.694,13.495c-0.701,0.994-1.384,1.875-1.978,2.549l-0.588,0.671v9.744c0,4.181,2.322,7.938,6.062,9.81
	l22.565,11.282c5.655,2.827,9.168,8.511,9.168,14.834V127.557z"/>
<text transform="matrix(1 0 0 1 118.3428 104.283)" font-family="'MyriadPro-Regular'" font-size="106.0947">+</text>
</svg>
