<!DOCTYPE svg PUBLIC "-//W3C//DTD SVG 20010904//EN" "http://www.w3.org/TR/2001/REC-SVG-20010904/DTD/svg10.dtd">
<svg version="1.0" xmlns="http://www.w3.org/2000/svg" width="1600px" height="1600px" viewBox="0 0 16000 16000" preserveAspectRatio="xMidYMid meet">
<g id="layer101" fill="#000000" stroke="none">
 <path d="M2955 15988 c-245 -19 -578 -100 -840 -204 -552 -220 -1028 -573 -1410 -1049 -102 -127 -269 -387 -352 -550 -201 -394 -312 -774 -342 -1165 -16 -205 -16 -9835 0 -10040 59 -775 463 -1571 1080 -2127 542 -488 1224 -792 1889 -842 205 -16 9835 -16 10040 0 620 47 1269 320 1788 753 670 560 1120 1402 1181 2216 16 206 16 9835 0 10040 -70 928 -630 1861 -1449 2416 -465 316 -1013 515 -1520 553 -178 14 -9895 13 -10065 -1z m9850 -648 c836 -48 1567 -453 2053 -1136 259 -365 419 -792 474 -1264 19 -169 19 -9708 0 -9880 -94 -816 -523 -1521 -1194 -1963 -355 -234 -755 -377 -1193 -429 -162 -19 -9728 -19 -9890 0 -438 52 -838 195 -1193 429 -669 441 -1098 1144 -1194 1958 -19 164 -19 9717 0 9885 91 796 498 1482 1147 1932 392 271 880 440 1353 467 206 12 9433 13 9637 1z"/>
 <path d="M11195 11514 c-107 -20 -294 -83 -394 -133 -283 -143 -488 -318 -869 -746 -237 -265 -401 -431 -478 -482 -47 -31 -58 -35 -79 -25 -69 32 -116 209 -130 487 -9 201 -47 303 -155 419 -71 75 -117 105 -226 143 l-79 28 -615 3 c-723 4 -957 -7 -1255 -58 -722 -125 -1316 -441 -1867 -994 -636 -638 -1388 -1722 -2110 -3041 -274 -500 -635 -1215 -679 -1345 -31 -92 -38 -249 -14 -336 22 -82 75 -164 153 -236 66 -61 132 -97 227 -125 55 -16 138 -18 988 -21 914 -3 930 -2 1004 18 160 44 295 123 404 236 81 86 99 116 192 334 176 412 358 771 570 1125 231 387 464 724 605 876 l66 72 17 -94 c35 -194 44 -337 43 -694 -2 -524 -24 -744 -92 -898 -17 -39 -29 -49 -86 -77 -37 -17 -109 -42 -162 -55 -120 -30 -173 -56 -232 -114 -85 -82 -123 -198 -102 -311 23 -127 56 -184 179 -313 197 -207 490 -321 906 -356 226 -19 470 -22 870 -12 599 15 845 53 1056 162 203 105 326 264 385 496 45 176 50 338 31 896 -30 877 -31 1286 -3 1314 16 17 199 -198 351 -411 346 -488 644 -1034 882 -1616 89 -218 106 -246 207 -345 104 -104 185 -150 326 -186 83 -22 103 -22 1040 -29 951 -8 1107 -5 1252 25 212 44 374 189 434 390 13 44 18 92 18 180 0 171 -27 264 -149 520 -149 314 -395 697 -735 1145 -680 898 -866 1151 -889 1213 -9 23 -5 33 31 79 57 71 168 181 383 377 225 205 692 671 812 811 209 244 355 451 453 645 75 146 95 227 95 375 0 142 -23 217 -99 329 -99 145 -282 263 -491 317 -94 25 -121 27 -435 34 -184 4 -591 11 -905 14 -480 4 -583 3 -650 -10z m1008 -664 c678 -10 744 -13 814 -31 42 -10 78 -21 80 -23 12 -12 -109 -210 -209 -343 -186 -246 -459 -531 -873 -913 -436 -402 -527 -502 -606 -667 -114 -239 -104 -463 32 -735 86 -171 163 -275 558 -758 474 -578 830 -1089 997 -1433 48 -98 80 -194 69 -205 -4 -4 -426 -5 -938 -4 -809 3 -934 6 -949 19 -9 8 -26 40 -39 71 -167 424 -390 875 -617 1252 -286 475 -508 783 -731 1013 -261 269 -460 360 -692 317 -96 -18 -176 -65 -270 -159 -99 -99 -148 -179 -191 -313 -58 -181 -63 -245 -61 -748 1 -250 10 -660 19 -911 20 -569 10 -709 -50 -737 -51 -23 -259 -62 -391 -73 -89 -7 -268 -9 -495 -6 -354 5 -495 16 -703 53 l-88 16 34 24 c57 38 138 174 183 308 53 154 77 345 94 736 28 639 -15 1135 -123 1432 -88 244 -301 398 -549 398 -107 0 -168 -15 -273 -65 -253 -122 -543 -464 -940 -1109 -273 -445 -467 -817 -682 -1311 -40 -93 -81 -177 -91 -186 -9 -9 -39 -24 -66 -33 -44 -14 -131 -16 -763 -16 l-714 0 7 23 c9 31 185 382 311 622 686 1304 1325 2298 1952 3035 149 176 448 474 581 579 395 315 798 486 1283 546 69 8 246 20 394 25 356 13 1070 13 1078 0 3 -5 10 -73 16 -151 11 -152 27 -246 61 -349 125 -384 487 -645 819 -590 134 22 263 83 404 189 97 73 261 237 530 531 370 404 487 509 660 597 127 65 280 106 355 97 19 -2 367 -9 773 -14z"/>
 </g>

</svg>